<svg width="183" height="36" viewBox="0 0 183 36" fill="none" xmlns="http://www.w3.org/2000/svg">
<path d="M0.408 35V1.4H15.672C19 1.4 21.688 2.328 23.736 4.184C25.816 6.008 26.856 8.392 26.856 11.336C26.856 13.544 26.232 15.464 24.984 17.096C23.736 18.696 22.056 19.848 19.944 20.552L27.432 35H21.864L14.904 21.224H5.448V35H0.408ZM15.24 5.816H5.448V17.048H15.24C17.192 17.048 18.76 16.536 19.944 15.512C21.16 14.456 21.768 13.096 21.768 11.432C21.768 9.736 21.16 8.376 19.944 7.352C18.76 6.328 17.192 5.816 15.24 5.816ZM51.1875 32.216C49.7795 33.304 48.3075 34.12 46.7715 34.664C45.2355 35.176 43.5555 35.432 41.7315 35.432C39.9395 35.432 38.2595 35.112 36.6915 34.472C35.1235 33.8 33.7635 32.904 32.6115 31.784C31.4595 30.664 30.5475 29.336 29.8755 27.8C29.2355 26.232 28.9155 24.552 28.9155 22.76C28.9155 21 29.2355 19.352 29.8755 17.816C30.5155 16.28 31.3795 14.952 32.4675 13.832C33.5555 12.712 34.8515 11.832 36.3555 11.192C37.8595 10.52 39.4595 10.184 41.1555 10.184C42.8195 10.184 44.3715 10.52 45.8115 11.192C47.2835 11.832 48.5315 12.728 49.5555 13.88C50.6115 15 51.4435 16.344 52.0515 17.912C52.6595 19.48 52.9635 21.16 52.9635 22.952V24.344H33.6675C33.9875 26.36 34.9155 28.04 36.4515 29.384C37.9875 30.696 39.8115 31.352 41.9235 31.352C43.1075 31.352 44.2435 31.16 45.3315 30.776C46.4195 30.392 47.3475 29.864 48.1155 29.192L51.1875 32.216ZM41.0595 14.216C39.2355 14.216 37.6355 14.824 36.2595 16.04C34.9155 17.256 34.0675 18.824 33.7155 20.744H48.2115C47.8595 18.888 47.0115 17.336 45.6675 16.088C44.3555 14.84 42.8195 14.216 41.0595 14.216ZM57.0986 19.352H74.3786V23.48H57.0986V19.352ZM79.4258 35V10.568H84.2258V13.016C85.1858 12.056 86.2738 11.336 87.4898 10.856C88.7378 10.344 90.0978 10.088 91.5698 10.088C94.3538 10.088 96.6418 10.984 98.4338 12.776C100.226 14.536 101.122 16.824 101.122 19.64V35H96.3218V20.456C96.3218 18.536 95.7618 17.032 94.6418 15.944C93.5538 14.824 92.0978 14.264 90.2738 14.264C88.9938 14.264 87.8258 14.536 86.7698 15.08C85.7458 15.624 84.8978 16.408 84.2258 17.432V35H79.4258ZM109.06 6.632C108.26 6.632 107.572 6.344 106.996 5.768C106.42 5.16 106.132 4.456 106.132 3.656C106.132 2.856 106.42 2.168 106.996 1.592C107.572 0.983998 108.26 0.679998 109.06 0.679998C109.86 0.679998 110.548 0.983998 111.124 1.592C111.732 2.168 112.036 2.856 112.036 3.656C112.036 4.456 111.732 5.16 111.124 5.768C110.548 6.344 109.86 6.632 109.06 6.632ZM111.46 10.568V35H106.66V10.568H111.46ZM117.113 35V10.568H121.913V12.872C122.809 11.976 123.833 11.288 124.985 10.808C126.137 10.328 127.401 10.088 128.777 10.088C130.409 10.088 131.881 10.456 133.193 11.192C134.505 11.896 135.545 12.888 136.313 14.168C137.305 12.824 138.489 11.816 139.865 11.144C141.273 10.44 142.841 10.088 144.569 10.088C147.257 10.088 149.449 10.984 151.145 12.776C152.873 14.536 153.737 16.824 153.737 19.64V35H148.937V20.456C148.937 18.536 148.425 17.032 147.401 15.944C146.409 14.824 145.049 14.264 143.321 14.264C142.137 14.264 141.065 14.536 140.105 15.08C139.145 15.624 138.313 16.44 137.609 17.528C137.673 17.848 137.721 18.2 137.753 18.584C137.785 18.936 137.801 19.288 137.801 19.64V35H133.049V20.456C133.049 18.536 132.537 17.032 131.513 15.944C130.521 14.824 129.161 14.264 127.433 14.264C126.281 14.264 125.241 14.52 124.313 15.032C123.385 15.512 122.585 16.248 121.913 17.24V35H117.113ZM180.422 32.216C179.014 33.304 177.542 34.12 176.006 34.664C174.47 35.176 172.79 35.432 170.966 35.432C169.174 35.432 167.494 35.112 165.926 34.472C164.358 33.8 162.998 32.904 161.846 31.784C160.694 30.664 159.782 29.336 159.11 27.8C158.47 26.232 158.15 24.552 158.15 22.76C158.15 21 158.47 19.352 159.11 17.816C159.75 16.28 160.614 14.952 161.702 13.832C162.79 12.712 164.086 11.832 165.59 11.192C167.094 10.52 168.694 10.184 170.39 10.184C172.054 10.184 173.606 10.52 175.046 11.192C176.518 11.832 177.766 12.728 178.79 13.88C179.846 15 180.678 16.344 181.286 17.912C181.894 19.48 182.198 21.16 182.198 22.952V24.344H162.902C163.222 26.36 164.15 28.04 165.686 29.384C167.222 30.696 169.046 31.352 171.158 31.352C172.342 31.352 173.478 31.16 174.566 30.776C175.654 30.392 176.582 29.864 177.35 29.192L180.422 32.216ZM170.294 14.216C168.47 14.216 166.87 14.824 165.494 16.04C164.15 17.256 163.302 18.824 162.95 20.744H177.446C177.094 18.888 176.246 17.336 174.902 16.088C173.59 14.84 172.054 14.216 170.294 14.216Z" fill="white"/>
</svg>
