<svg width="50" height="50" viewBox="0 0 50 50" fill="none" xmlns="http://www.w3.org/2000/svg">
<g clip-path="url(#clip0_3_2)">
<path d="M42.756 33.66C41.604 34.596 40.416 35.28 39.192 35.712C37.992 36.144 36.648 36.36 35.16 36.36C33.744 36.36 32.412 36.108 31.164 35.604C29.94 35.1 28.872 34.416 27.96 33.552C27.072 32.688 26.364 31.668 25.836 30.492C25.332 29.292 25.08 28.008 25.08 26.64C25.08 25.296 25.32 24.036 25.8 22.86C26.304 21.66 26.988 20.628 27.852 19.764C28.716 18.876 29.736 18.18 30.912 17.676C32.112 17.172 33.384 16.92 34.728 16.92C36.048 16.92 37.272 17.184 38.4 17.712C39.552 18.216 40.536 18.912 41.352 19.8C42.192 20.688 42.84 21.756 43.296 23.004C43.776 24.228 44.016 25.56 44.016 27V28.296H30.048C30.384 29.472 31.032 30.42 31.992 31.14C32.952 31.86 34.08 32.22 35.376 32.22C36.192 32.22 36.96 32.088 37.68 31.824C38.4 31.56 39.012 31.188 39.516 30.708L42.756 33.66ZM34.62 20.988C33.492 20.988 32.52 21.336 31.704 22.032C30.888 22.704 30.324 23.616 30.012 24.768H39.192C38.88 23.664 38.304 22.764 37.464 22.068C36.648 21.348 35.7 20.988 34.62 20.988Z" fill="#FF357E"/>
<path d="M11.268 37V11.8H23.58C24.852 11.8 26.016 11.992 27.072 12.376C28.152 12.76 29.076 13.3 29.844 13.996C30.612 14.668 31.212 15.484 31.644 16.444C32.076 17.404 32.292 18.46 32.292 19.612C32.292 21.196 31.836 22.612 30.924 23.86C30.036 25.108 28.848 26.032 27.36 26.632L32.94 37H27.108L22.176 27.352H16.488V37H11.268ZM23.112 16.3H16.488V23.068H23.112C24.288 23.068 25.224 22.756 25.92 22.132C26.64 21.508 27 20.692 27 19.684C27 18.676 26.64 17.86 25.92 17.236C25.224 16.612 24.288 16.3 23.112 16.3Z" fill="white"/>
</g>
<defs>
<clipPath id="clip0_3_2">
<rect width="50" height="50" fill="white"/>
</clipPath>
</defs>
</svg>
